<svg id="layer" xmlns="http://www.w3.org/2000/svg" viewBox="-10 -10 410 280" stroke-linecap="round" stroke-linejoin="round" stroke-width="5px"><defs><style>.cls-1{fill:none;}.cls-1,.cls-2{stroke:#680000;stroke-miterlimit:10;}.cls-2{fill:#680000;opacity:0;}</style></defs><path class="cls-1 aDSDUtkk_0" d="M47.6,65.21c4.66-22,31-51.34,35.15-48.12,1.81,1.42,4.36,12.65,2.76,33.13" transform="translate(-29.76 -16.35)"></path><path class="cls-1 aDSDUtkk_1" d="M94,46.5c3.73-16.46,15-25,25-26,3.14-.3,4.53,0,9.63,5.22" transform="translate(-29.76 -16.35)"></path><path class="cls-1 aDSDUtkk_2" d="M126,51.89c2.66-6.66,10.59-14.24,20.42-20.91,6.84-4.64,17.47-9.48,19.26-8,1.58,1.29,2.28,8-7.38,36.92" transform="translate(-29.76 -16.35)"></path><path class="cls-1 aDSDUtkk_3" d="M40.94,81.43l12.7-7.1" transform="translate(-29.76 -16.35)"></path><path class="cls-1 aDSDUtkk_4" d="M49.22,84.24c-5.28,3.37-6.68,7.11-8.28,9.7-2.3,3.7-5.52,12-3.82,13.44,0,0,2.8-5.07,4.61-3.91,2.1,1.35-.79,4.71,0,11.53" transform="translate(-29.76 -16.35)"></path><path class="cls-1 aDSDUtkk_5" d="M71.1,74.09c-2.52,3.24-2.43,2.15-4.95,5.39" transform="translate(-29.76 -16.35)"></path><path class="cls-1 aDSDUtkk_6" d="M81.68,64.38c.56,21.85,6.21,27.09,7.78,27.07,1.07,0,2.2-3.72,3.09-5.06.79-1.18,2-1.41,2.24-2.15" transform="translate(-29.76 -16.35)"></path><path class="cls-1 aDSDUtkk_7" d="M103.93,60.43c1.69,2.26,3.4,5.2,4.29,12.72.82,6.91.08,9.43-.94,12" transform="translate(-29.76 -16.35)"></path><path class="cls-1 aDSDUtkk_8" d="M118.48,71.68c3.2,4.95,6.23,6.23,10.17,9.9" transform="translate(-29.76 -16.35)"></path><path class="cls-1 aDSDUtkk_9" d="M168.76,60.43c1.51,6.22,3,5.87,5.18,9.16,1.17,1.72-2.48,2.92-3.28,3.22" transform="translate(-29.76 -16.35)"></path><path class="cls-1 aDSDUtkk_10" d="M157.16,88.3c6.1,3.54,8.2,3.75,14.31,7.29" transform="translate(-29.76 -16.35)"></path><path class="cls-1 aDSDUtkk_11" d="M45.05,75.53L42.37,84.57"></path><path class="cls-1 aDSDUtkk_12" d="M88.9,77.78L87.15,84.57"></path><path class="cls-1 aDSDUtkk_13" d="M87.52,99.62c.25,10.78-12.79,16.42-22.26,15.44C54.48,114,51.4,102.82,54.16,98.84c1.23-1.76,1.81-3.24,3.67-2.5,1.33.52-4.47,16.47-5.11,22.54-.89,8.41,26.53,12.84,34.3,12.88a112.71,112.71,0,0,0,36.3-6.22" transform="translate(-29.76 -16.35)"></path><path class="cls-1 aDSDUtkk_14" d="M87.52,103l6.44.34" transform="translate(-29.76 -16.35)"></path><path class="cls-1 aDSDUtkk_15" d="M102.26,99.62a8.31,8.31,0,0,0-.85,10.94c4.84,7,16.73,6.18,24.58,2.57,2.64-1.22,7.43-2.57,8.86-6.35.53-1.4,2-3.77,1.79-4.66" transform="translate(-29.76 -16.35)"></path><path class="cls-1 aDSDUtkk_16" d="M141.19,95a15.38,15.38,0,0,1,3.22,8.22c.52,8.7-8,14.61-6.32,17.21.71,1.11,3.29,1.56,11-.89" transform="translate(-29.76 -16.35)"></path><path class="cls-1 aDSDUtkk_17" d="M80.14,132.87c-.62,3.14-3.57,7.81,1,8.1,10.43.67,10.29-5.22,9.55-7.21-.41-1.09-2.39.05-4.18.77-4.7,1.91-3.38,7.72-8.82,19.43-.73,1.57,6.72-15,7.52-14.14.6.67-2,10.41-2.41,14.7-.19,1.9,1.78,3.77,1,3.18-.22-.16-6.16,1.06-11.63-.41-11-2.94-25.74-12.54-23.74-13.43a98.21,98.21,0,0,1,17.76-5.33c1.55-.16,1,10.72,6,16.87" transform="translate(-29.76 -16.35)"></path><path class="cls-1 aDSDUtkk_18" d="M100,149.16a62.92,62.92,0,0,1,9.33-10.85c1,.22,10.65,2.66,17.76,5.22" transform="translate(-29.76 -16.35)"></path><path class="cls-1 aDSDUtkk_19" d="M90.18,156.94c1.43,3.58,1.68,7.73,16.23,8.54a36.86,36.86,0,0,0,14.25-.86A101.53,101.53,0,0,0,147.49,154c8.79-4.89,15.77-9.72,20.46-14.42" transform="translate(-29.76 -16.35)"></path><path class="cls-1 aDSDUtkk_20" d="M160.24,114.25l8.08-3.08" transform="translate(-29.76 -16.35)"></path><path class="cls-1 aDSDUtkk_21" d="M172.84,153.72a41.6,41.6,0,0,0,7.9-6.89c2.76-3.07,4.81-4.43,6.39-7" transform="translate(-29.76 -16.35)"></path><path class="cls-1 aDSDUtkk_22" d="M202.52,60.91c.11,4.71.14,5.83.25,10.55" transform="translate(-29.76 -16.35)"></path><path class="cls-1 aDSDUtkk_23" d="M185.62,78.8l37,.32" transform="translate(-29.76 -16.35)"></path><path class="cls-1 aDSDUtkk_24" d="M201.47,93c-3.3.26-9.89,3.19-14.34,10.22-4.35,6.86-5.73,18.13-3.75,20.42,1.11,1.28,3.54-6.25,8.83-6.42,8.07-.25,21.77-.5,23.25.89,3.54,3.32,3.74,6.36,6.33,6.36,3,0,4.18-10.32,2.6-17.11-2.15-9.27-8.5-11.72-11.44-13.45" transform="translate(-29.76 -16.35)"></path><path class="cls-1 aDSDUtkk_25" d="M201.57,125.61c.72,20.46.86,34.25.91,42.58,0,1.39-.46,4.62-2.1,5.69-2.36,1.55-5.75-3.22-9.66-6" transform="translate(-29.76 -16.35)"></path><path class="cls-1 aDSDUtkk_26" d="M216.19,138.13c4.88,3.83,8.38,6,13.26,9.85" transform="translate(-29.76 -16.35)"></path><path class="cls-1 aDSDUtkk_27" d="M251.91,100.33A107.59,107.59,0,0,1,250.1,124c-1.94,9.94-5.12,19.18-10.66,30.47a38.47,38.47,0,0,1-17.61,18.26" transform="translate(-29.76 -16.35)"></path><path class="cls-1 aDSDUtkk_28" d="M243.93,79.53c20,2.06,38,1.43,41.63.61,2.69-.61,2,5,2.83,11.54,1.8,14.08,3.35,25.25,12,47.63a63.94,63.94,0,0,0,10.49,18.48A16.34,16.34,0,0,0,321,164" transform="translate(-29.76 -16.35)"></path><path class="cls-1 aDSDUtkk_29" d="M276.77,89.35c-4.83,2-6.78,2.67-11.61,4.66" transform="translate(-29.76 -16.35)"></path><path class="cls-1 aDSDUtkk_30" d="M263,102.13c-1,4.63,2.49,17.53,2.27,17.24" transform="translate(-29.76 -16.35)"></path><path class="cls-1 aDSDUtkk_31" d="M264.05,103.71c4.23-1.62,10.76-1,12,.8,2.22,3.23,1.56,9.7-.19,12.83-1.59,2.86-7.22,1.84-10.72.5" transform="translate(-29.76 -16.35)"></path><path class="cls-1 aDSDUtkk_32" d="M270.24,103.17q.25,21.64.5,43.3" transform="translate(-29.76 -16.35)"></path><path class="cls-1 aDSDUtkk_33" d="M251.49,155.64c11.61-5.16,22.47-10.84,34.07-16" transform="translate(-29.76 -16.35)"></path><path class="cls-1 aDSDUtkk_34" d="M284.22,128.2c1.87,11.94,2.86,20,4.73,32" transform="translate(-29.76 -16.35)"></path><path class="cls-1 aDSDUtkk_35" d="M84.05,172.36c-4.44,9.43-7.2,16.13-11.64,25.56" transform="translate(-29.76 -16.35)"></path><path class="cls-1 aDSDUtkk_36" d="M54.61,219.9c26.47-.57,52.93-.9,79.92-.49" transform="translate(-29.76 -16.35)"></path><path class="cls-1 aDSDUtkk_37" d="M88,195.27c-.52,21.41-.26,39.85-.78,61.26" transform="translate(-29.76 -16.35)"></path><path class="cls-1 aDSDUtkk_38" d="M153.62,170.94a87.54,87.54,0,0,1-17.75,13.66" transform="translate(-29.76 -16.35)"></path><path class="cls-1 aDSDUtkk_39" d="M145.12,191.77c.19,8.56.11,16.28.29,24.85.37,17.08-.09,34.16.28,51.24" transform="translate(-29.76 -16.35)"></path><path class="cls-1 aDSDUtkk_40" d="M149.85,216.9l16.66-.33" transform="translate(-29.76 -16.35)"></path><path class="cls-1 aDSDUtkk_41" d="M137.83,230.39l-14.32,18.32" transform="translate(-29.76 -16.35)"></path><path class="cls-1 aDSDUtkk_42" d="M154.32,233.92c3.22,2.22,5.16,3.1,8.38,5.32" transform="translate(-29.76 -16.35)"></path><path class="cls-1 aDSDUtkk_43" d="M169.17,198.25q3.66,2.67,7.33,5.33" transform="translate(-29.76 -16.35)"></path><path class="cls-1 aDSDUtkk_44" d="M196.48,194.26c-.38,10.59-2.09,18.92-3,24.64-3.35,21-8.34,29.63-10.73,37.73a15.4,15.4,0,0,1-3.67,6.63c-1.36,1.54-1.92,2.22-2.92,2.6" transform="translate(-29.76 -16.35)"></path><path class="cls-1 aDSDUtkk_45" d="M214.79,198.25q-3,4.33-6,8.66" transform="translate(-29.76 -16.35)"></path><path class="cls-1 aDSDUtkk_46" d="M195,219.74c5.47,2.41,17.31,6.09,29.43,1.32,26.31-10.35,38-35,39.33-38.46" transform="translate(-29.76 -16.35)"></path><path class="cls-1 aDSDUtkk_47" d="M217.79,237.88a12.25,12.25,0,0,0,2.33,7.66c2.88,3.66,7.74,3.79,11.66,4.67,22.6,5.06,35.09,3.21,39.21,4.2,2.8.67,3.78,5.92,4.56,8.44,2,6.43,1,5.87,3.58,8,6.66,5.67,20.37,4.12,27.25,3A72.89,72.89,0,0,0,326,267.52" transform="translate(-29.76 -16.35)"></path><path class="cls-1 aDSDUtkk_48" d="M29.88,219c3.7,1,6.75.19,8.08-1.8,2.55-3.84-2.69-9.88-4.33-9.25-1.26.48,2.9,5.58,5.68,7,3.56,1.81,8-5.33,6.14-4.58s-6.83,16.78-7.32,17.16c-1,.77,1.38-7.63,1.81-9,.63-2,.74,1.27,6.69,3" transform="translate(-29.76 -16.35)"></path><path class="cls-1 aDSDUtkk_49" d="M314.53,121.74c-.52-1,.3-2.66.71-4.18a5.86,5.86,0,0,1,3.13-3.9c6.37-2.77,12.17-13.39,27.64-20.31,30.33-13.56,68.6-19.44,66.55-16-.93,1.56-5.29,4.84-4,7s5.55-.85,6.75,1.33c.9,1.64-1.28,3.66-2.33,6.66-1.61,4.59.68,8,3.33,15.65.61,1.78-.34-.81,5,21.32,2.9,12,3.26,13.11,3.67,15,4.19,19.39-4.84,39.07-8,46a100.14,100.14,0,0,1-28,35.3c-6.74,5.42-38.3,30.84-79.26,22.65-25-5-41.25-20.09-48.29-27.64" transform="translate(-29.76 -16.35)"></path><path class="cls-1 aDSDUtkk_50" d="M342.39,116c20.49-5.89,22.85-8,25.31-8,6,0,2.87,12,7.63,13.44,5.55,1.7,16.39-6.67,22.59-4.34,5.85,2.2,4.4,11.91,9.37,15.85,2.51,2,8.43-1.91,14-3.66" transform="translate(-29.76 -16.35)"></path><path class="cls-2 aDSDUtkk_51" d="M80.08,17.42,54.27,46.5c9.66-5.31,23.42-15.93,29-15.93Q81.66,24,80.08,17.42Z" transform="translate(-29.76 -16.35)"></path><path class="cls-2 aDSDUtkk_52" d="M133.42,7.64L113.24,17.3L133.42,15.36L133.42,7.64Z"></path><style data-made-with="vivus-instant">.aDSDUtkk_0{stroke-dasharray:96 98;stroke-dashoffset:97;animation:aDSDUtkk_draw 156ms ease-in-out 0ms forwards;}.aDSDUtkk_1{stroke-dasharray:50 52;stroke-dashoffset:51;animation:aDSDUtkk_draw 82ms ease-in-out 156ms forwards;}.aDSDUtkk_2{stroke-dasharray:90 92;stroke-dashoffset:91;animation:aDSDUtkk_draw 147ms ease-in-out 239ms forwards;}.aDSDUtkk_3{stroke-dasharray:15 17;stroke-dashoffset:16;animation:aDSDUtkk_draw 25ms ease-in-out 386ms forwards;}.aDSDUtkk_4{stroke-dasharray:46 48;stroke-dashoffset:47;animation:aDSDUtkk_draw 76ms ease-in-out 412ms forwards;}.aDSDUtkk_5{stroke-dasharray:8 10;stroke-dashoffset:9;animation:aDSDUtkk_draw 14ms ease-in-out 488ms forwards;}.aDSDUtkk_6{stroke-dasharray:39 41;stroke-dashoffset:40;animation:aDSDUtkk_draw 64ms ease-in-out 502ms forwards;}.aDSDUtkk_7{stroke-dasharray:26 28;stroke-dashoffset:27;animation:aDSDUtkk_draw 43ms ease-in-out 567ms forwards;}.aDSDUtkk_8{stroke-dasharray:15 17;stroke-dashoffset:16;animation:aDSDUtkk_draw 25ms ease-in-out 611ms forwards;}.aDSDUtkk_9{stroke-dasharray:16 18;stroke-dashoffset:17;animation:aDSDUtkk_draw 27ms ease-in-out 637ms forwards;}.aDSDUtkk_10{stroke-dasharray:17 19;stroke-dashoffset:18;animation:aDSDUtkk_draw 29ms ease-in-out 664ms forwards;}.aDSDUtkk_11{stroke-dasharray:10 12;stroke-dashoffset:11;animation:aDSDUtkk_draw 17ms ease-in-out 693ms forwards;}.aDSDUtkk_12{stroke-dasharray:8 10;stroke-dashoffset:9;animation:aDSDUtkk_draw 14ms ease-in-out 711ms forwards;}.aDSDUtkk_13{stroke-dasharray:158 160;stroke-dashoffset:159;animation:aDSDUtkk_draw 257ms ease-in-out 726ms forwards;}.aDSDUtkk_14{stroke-dasharray:7 9;stroke-dashoffset:8;animation:aDSDUtkk_draw 12ms ease-in-out 983ms forwards;}.aDSDUtkk_15{stroke-dasharray:55 57;stroke-dashoffset:56;animation:aDSDUtkk_draw 90ms ease-in-out 996ms forwards;}.aDSDUtkk_16{stroke-dasharray:40 42;stroke-dashoffset:41;animation:aDSDUtkk_draw 66ms ease-in-out 1086ms forwards;}.aDSDUtkk_17{stroke-dasharray:163 165;stroke-dashoffset:164;animation:aDSDUtkk_draw 265ms ease-in-out 1152ms forwards;}.aDSDUtkk_18{stroke-dasharray:33 35;stroke-dashoffset:34;animation:aDSDUtkk_draw 54ms ease-in-out 1418ms forwards;}.aDSDUtkk_19{stroke-dasharray:89 91;stroke-dashoffset:90;animation:aDSDUtkk_draw 145ms ease-in-out 1473ms forwards;}.aDSDUtkk_20{stroke-dasharray:9 11;stroke-dashoffset:10;animation:aDSDUtkk_draw 16ms ease-in-out 1618ms forwards;}.aDSDUtkk_21{stroke-dasharray:21 23;stroke-dashoffset:22;animation:aDSDUtkk_draw 35ms ease-in-out 1634ms forwards;}.aDSDUtkk_22{stroke-dasharray:11 13;stroke-dashoffset:12;animation:aDSDUtkk_draw 19ms ease-in-out 1670ms forwards;}.aDSDUtkk_23{stroke-dasharray:38 40;stroke-dashoffset:39;animation:aDSDUtkk_draw 63ms ease-in-out 1689ms forwards;}.aDSDUtkk_24{stroke-dasharray:121 123;stroke-dashoffset:122;animation:aDSDUtkk_draw 197ms ease-in-out 1752ms forwards;}.aDSDUtkk_25{stroke-dasharray:61 63;stroke-dashoffset:62;animation:aDSDUtkk_draw 100ms ease-in-out 1950ms forwards;}.aDSDUtkk_26{stroke-dasharray:17 19;stroke-dashoffset:18;animation:aDSDUtkk_draw 29ms ease-in-out 2050ms forwards;}.aDSDUtkk_27{stroke-dasharray:83 85;stroke-dashoffset:84;animation:aDSDUtkk_draw 135ms ease-in-out 2079ms forwards;}.aDSDUtkk_28{stroke-dasharray:138 140;stroke-dashoffset:139;animation:aDSDUtkk_draw 224ms ease-in-out 2215ms forwards;}.aDSDUtkk_29{stroke-dasharray:13 15;stroke-dashoffset:14;animation:aDSDUtkk_draw 22ms ease-in-out 2440ms forwards;}.aDSDUtkk_30{stroke-dasharray:18 20;stroke-dashoffset:19;animation:aDSDUtkk_draw 30ms ease-in-out 2462ms forwards;}.aDSDUtkk_31{stroke-dasharray:38 40;stroke-dashoffset:39;animation:aDSDUtkk_draw 63ms ease-in-out 2493ms forwards;}.aDSDUtkk_32{stroke-dasharray:44 46;stroke-dashoffset:45;animation:aDSDUtkk_draw 72ms ease-in-out 2556ms forwards;}.aDSDUtkk_33{stroke-dasharray:38 40;stroke-dashoffset:39;animation:aDSDUtkk_draw 63ms ease-in-out 2629ms forwards;}.aDSDUtkk_34{stroke-dasharray:33 35;stroke-dashoffset:34;animation:aDSDUtkk_draw 54ms ease-in-out 2692ms forwards;}.aDSDUtkk_35{stroke-dasharray:29 31;stroke-dashoffset:30;animation:aDSDUtkk_draw 48ms ease-in-out 2747ms forwards;}.aDSDUtkk_36{stroke-dasharray:80 82;stroke-dashoffset:81;animation:aDSDUtkk_draw 130ms ease-in-out 2795ms forwards;}.aDSDUtkk_37{stroke-dasharray:62 64;stroke-dashoffset:63;animation:aDSDUtkk_draw 101ms ease-in-out 2926ms forwards;}.aDSDUtkk_38{stroke-dasharray:23 25;stroke-dashoffset:24;animation:aDSDUtkk_draw 38ms ease-in-out 3028ms forwards;}.aDSDUtkk_39{stroke-dasharray:77 79;stroke-dashoffset:78;animation:aDSDUtkk_draw 126ms ease-in-out 3067ms forwards;}.aDSDUtkk_40{stroke-dasharray:17 19;stroke-dashoffset:18;animation:aDSDUtkk_draw 29ms ease-in-out 3193ms forwards;}.aDSDUtkk_41{stroke-dasharray:24 26;stroke-dashoffset:25;animation:aDSDUtkk_draw 40ms ease-in-out 3222ms forwards;}.aDSDUtkk_42{stroke-dasharray:10 12;stroke-dashoffset:11;animation:aDSDUtkk_draw 17ms ease-in-out 3263ms forwards;}.aDSDUtkk_43{stroke-dasharray:10 12;stroke-dashoffset:11;animation:aDSDUtkk_draw 17ms ease-in-out 3281ms forwards;}.aDSDUtkk_44{stroke-dasharray:76 78;stroke-dashoffset:77;animation:aDSDUtkk_draw 124ms ease-in-out 3298ms forwards;}.aDSDUtkk_45{stroke-dasharray:11 13;stroke-dashoffset:12;animation:aDSDUtkk_draw 19ms ease-in-out 3423ms forwards;}.aDSDUtkk_46{stroke-dasharray:87 89;stroke-dashoffset:88;animation:aDSDUtkk_draw 142ms ease-in-out 3442ms forwards;}.aDSDUtkk_47{stroke-dasharray:129 131;stroke-dashoffset:130;animation:aDSDUtkk_draw 210ms ease-in-out 3585ms forwards;}.aDSDUtkk_48{stroke-dasharray:76 78;stroke-dashoffset:77;animation:aDSDUtkk_draw 124ms ease-in-out 3795ms forwards;}.aDSDUtkk_49{stroke-dasharray:426 428;stroke-dashoffset:427;animation:aDSDUtkk_draw 690ms ease-in-out 3919ms forwards;}.aDSDUtkk_50{stroke-dasharray:101 103;stroke-dashoffset:102;animation:aDSDUtkk_draw 164ms ease-in-out 4610ms forwards;}.aDSDUtkk_51{stroke-dasharray:86 88;stroke-dashoffset:87;animation:aDSDUtkk_draw 140ms ease-in-out 4775ms forwards, aDSDUtkk_fade 140ms ease-in-out 4775ms forwards;}.aDSDUtkk_52{stroke-dasharray:51 53;stroke-dashoffset:52;animation:aDSDUtkk_draw 84ms ease-in-out 4915ms forwards,aDSDUtkk_fade 84ms ease-in-out 4915ms forwards;}@keyframes aDSDUtkk_draw{100%{stroke-dashoffset:0;}}@keyframes aDSDUtkk_fade{0%{opacity:0;}100%{opacity:1;}}</style></svg>