<?xml version="1.0" standalone="no"?>
<!DOCTYPE svg PUBLIC "-//W3C//DTD SVG 20010904//EN"
 "http://www.w3.org/TR/2001/REC-SVG-20010904/DTD/svg10.dtd">
<svg version="1.0" xmlns="http://www.w3.org/2000/svg"
 width="700.000000pt" height="700.000000pt" viewBox="0 0 700.000000 700.000000"
 preserveAspectRatio="xMidYMid meet">
<metadata>
Created by potrace 1.14, written by Peter Selinger 2001-2017
</metadata>
<g transform="translate(0.000000,700.000000) scale(0.100000,-0.100000)"
fill="#000000" stroke="none">
<path d="M3278 6995 c-1 -1 -42 -6 -89 -9 -47 -4 -94 -8 -105 -10 -10 -2 -46
-7 -79 -12 -33 -4 -62 -8 -65 -9 -3 -1 -25 -5 -50 -9 -117 -19 -320 -70 -455
-113 -381 -123 -719 -297 -1033 -533 -124 -93 -142 -107 -245 -200 -500 -445
-880 -1073 -1047 -1728 -26 -105 -57 -256 -65 -319 -4 -26 -8 -55 -11 -64 -2
-8 -7 -42 -10 -75 -3 -32 -9 -95 -14 -139 -8 -82 -6 -536 3 -590 3 -16 8 -57
12 -90 3 -33 8 -71 10 -85 2 -14 6 -43 10 -65 58 -398 227 -865 442 -1223 37
-62 73 -121 78 -130 51 -89 245 -338 346 -447 245 -264 491 -465 794 -650 245
-149 589 -294 887 -374 124 -33 332 -76 418 -87 30 -3 66 -8 80 -10 186 -26
650 -25 840 2 440 64 774 166 1134 345 328 164 614 368 875 623 83 81 121 122
252 270 171 195 377 528 506 816 130 292 242 684 269 940 3 36 8 68 10 71 24
42 23 790 -1 829 -2 3 -6 30 -9 60 -3 30 -8 64 -10 75 -2 11 -11 61 -21 110
-113 607 -410 1205 -829 1669 -415 461 -923 794 -1511 990 -148 50 -415 115
-535 131 -14 2 -38 6 -55 9 -16 3 -55 8 -85 11 -30 4 -73 9 -95 12 -46 5 -541
13 -547 8z m512 -259 c19 -3 58 -8 85 -10 322 -29 741 -154 1076 -321 104 -52
352 -196 346 -201 -1 -1 -22 -5 -46 -9 -147 -22 -364 -143 -509 -285 -165
-160 -270 -348 -277 -493 -1 -26 -5 -50 -8 -53 -5 -6 -144 -8 -223 -5 -17 1
-27 16 -49 79 -55 156 -145 310 -237 404 l-40 41 -201 -202 -202 -201 -202
202 -202 202 -27 -24 c-85 -79 -186 -247 -248 -414 l-32 -90 -115 1 c-63 1
-117 2 -120 2 -3 1 -9 34 -12 75 -23 312 -446 717 -802 770 -16 2 -32 5 -35 5
-5 1 8 9 127 81 155 92 337 181 488 237 44 17 89 34 100 38 11 5 22 9 25 10
15 3 159 48 180 55 98 34 387 86 574 104 130 13 519 14 586 2z m-2312 -738
c-16 -82 -3 -259 26 -363 47 -172 114 -303 225 -444 71 -91 141 -149 226 -187
33 -15 61 -28 62 -29 2 0 -15 -55 -36 -121 l-38 -119 -99 -6 c-155 -10 -240
-24 -339 -56 -63 -20 -152 -60 -159 -72 -3 -4 24 -66 61 -137 36 -71 93 -183
127 -250 l62 -121 -110 -57 c-61 -32 -174 -89 -251 -129 -77 -39 -142 -72
-144 -73 -6 -5 59 -114 99 -169 67 -90 203 -220 288 -275 l23 -15 -32 -100
c-17 -55 -33 -102 -35 -103 -1 -2 -19 1 -39 8 -21 7 -75 14 -122 15 -215 7
-512 -123 -714 -312 -69 -65 -154 -176 -170 -222 -6 -18 -13 -30 -16 -28 -5 6
-31 100 -38 142 -3 17 -10 46 -15 65 -16 61 -49 281 -57 385 -4 55 -8 186 -8
290 1 229 8 325 42 520 8 50 17 99 18 110 2 11 13 58 25 105 12 47 23 95 26
106 10 50 96 297 138 398 113 268 289 563 472 791 121 149 323 352 484 484 14
11 26 20 26 21 1 0 -3 -24 -8 -52z m4154 -50 c107 -94 239 -226 308 -308 30
-35 63 -73 73 -85 48 -52 169 -222 239 -333 241 -384 408 -840 464 -1267 3
-27 8 -59 10 -70 28 -146 24 -570 -7 -817 -18 -144 -76 -419 -88 -417 -4 0
-26 32 -51 71 -87 135 -277 292 -454 373 -172 80 -360 111 -486 82 -36 -9 -68
-13 -71 -9 -4 4 -20 51 -37 104 l-29 98 75 56 c42 32 109 91 149 132 79 80
181 224 185 261 3 19 -26 37 -242 148 -135 69 -247 127 -248 128 -2 2 53 115
122 251 69 136 126 251 126 256 0 20 -220 99 -315 113 -27 4 -106 10 -174 14
l-125 6 -37 115 c-21 63 -38 118 -38 121 -1 4 13 9 31 13 46 9 147 69 193 114
218 214 349 525 342 815 -1 59 -1 107 0 107 2 0 40 -33 85 -72z m-2879 -795
c-9 -73 -12 -129 -12 -248 0 -142 5 -190 35 -329 15 -72 18 -82 30 -125 7 -23
5 -22 -48 12 -163 104 -345 181 -531 224 -62 14 -113 27 -114 28 -3 2 84 266
89 269 2 2 23 10 46 20 69 27 144 79 192 134 l45 51 137 1 136 0 -5 -37z
m1835 -31 c47 -45 93 -79 141 -102 79 -39 67 -20 130 -209 17 -52 30 -95 28
-97 -1 -2 -18 -6 -37 -9 -178 -30 -434 -132 -583 -233 -71 -47 -71 -47 -63
-26 14 32 29 100 51 229 14 83 14 433 0 488 l-7 27 135 0 136 0 69 -68z
m-1021 -827 c1 -231 2 -439 3 -462 0 -41 0 -41 33 -36 17 2 59 16 92 30 73 30
91 33 86 13 -6 -24 -4 -190 2 -196 7 -7 -24 -16 457 139 212 69 395 128 406
131 19 6 24 0 42 -53 l20 -60 -431 -142 c-238 -77 -436 -145 -441 -149 -10
-10 22 -64 80 -136 l42 -51 -58 -11 c-31 -5 -80 -20 -108 -32 l-50 -22 227
-309 c124 -170 247 -340 272 -376 l47 -67 -51 -37 -52 -37 -20 28 c-11 15 -28
38 -37 51 -10 13 -44 60 -76 104 -32 44 -136 187 -231 318 -95 130 -178 237
-185 237 -14 0 -51 -46 -97 -120 l-35 -57 -27 51 c-15 28 -44 71 -65 95 l-38
44 -76 -104 c-42 -57 -164 -225 -271 -372 -107 -148 -197 -269 -199 -270 -2
-1 -27 15 -56 35 l-52 38 78 104 c42 57 120 163 172 235 182 252 251 346 275
377 l24 32 -52 21 c-44 17 -80 28 -119 37 -5 1 -18 2 -29 3 -19 1 -18 5 16 42
41 45 95 127 95 144 0 5 -19 16 -42 23 -24 7 -215 69 -424 138 -210 68 -387
124 -393 124 -15 0 -14 17 5 79 9 32 20 51 27 48 7 -2 167 -55 357 -116 190
-62 382 -125 428 -141 50 -17 85 -24 88 -18 7 11 7 162 0 196 -6 27 -8 27 56
-1 57 -25 148 -51 155 -44 2 3 4 208 4 458 0 249 2 456 5 460 3 5 31 7 62 6
l57 -2 2 -420z m-1707 -1095 c134 -46 280 -76 422 -86 51 -4 94 -7 95 -9 2 -1
-26 -25 -61 -54 -134 -108 -287 -290 -375 -444 l-33 -57 -31 22 c-18 12 -68
49 -112 81 l-80 58 -11 79 c-12 83 -42 170 -80 231 l-22 36 33 102 c18 56 36
108 39 116 4 11 20 8 78 -19 40 -18 102 -43 138 -56z m3533 -35 l38 -115 -36
-73 c-40 -81 -65 -164 -65 -219 0 -30 -6 -41 -32 -61 -18 -13 -68 -49 -110
-80 l-77 -57 -30 46 c-17 25 -31 47 -31 50 0 3 -24 41 -54 83 -77 108 -177
218 -275 301 -57 48 -81 70 -81 74 0 1 15 3 33 3 172 1 452 64 612 139 28 13
55 23 60 24 6 0 27 -52 48 -115z m-3654 -697 l99 -71 -19 -56 c-24 -70 -46
-153 -54 -206 -3 -23 -8 -52 -10 -65 -8 -37 -7 -224 1 -265 3 -19 10 -38 15
-41 5 -3 33 -1 62 5 28 6 70 13 92 16 22 3 121 18 220 34 99 16 181 28 182 27
1 -1 10 -54 19 -121 3 -27 7 -52 9 -55 2 -3 6 -30 10 -60 4 -30 8 -57 10 -60
2 -3 6 -29 10 -59 4 -30 9 -63 11 -75 2 -11 6 -38 10 -61 3 -22 7 -47 9 -55 1
-8 5 -14 9 -14 3 1 27 5 53 9 126 19 272 81 418 179 55 37 103 68 106 69 4 1
45 -26 93 -61 l87 -63 -25 -32 c-32 -42 -62 -113 -81 -190 -23 -99 -14 -345
19 -470 42 -165 115 -315 204 -419 23 -27 42 -51 42 -53 0 -2 -10 -2 -22 0
-13 2 -59 6 -103 10 -221 17 -510 77 -735 152 -74 24 -148 51 -165 58 -16 7
-74 32 -129 56 -249 107 -571 306 -760 468 -183 158 -264 239 -430 431 -80 92
-227 304 -306 440 -79 135 -194 378 -220 462 -8 26 -8 27 13 13 25 -16 114
-49 172 -64 123 -32 365 -36 485 -8 8 2 31 7 50 11 55 12 164 48 175 57 5 5
15 9 21 9 41 0 234 150 234 181 0 19 23 7 119 -63z m3667 32 c86 -115 291
-211 529 -246 106 -16 300 -9 408 16 55 12 157 49 175 63 18 14 15 4 -23 -89
-290 -701 -847 -1298 -1532 -1643 -143 -72 -311 -142 -453 -188 -106 -35 -306
-87 -370 -98 -19 -3 -42 -8 -50 -10 -8 -2 -35 -7 -60 -10 -25 -3 -57 -8 -71
-10 -51 -9 -105 -15 -184 -21 -44 -3 -88 -8 -98 -10 -20 -3 -16 6 22 49 144
162 239 429 246 693 4 171 -28 310 -94 403 l-21 29 23 16 c122 90 161 115 171
109 6 -4 38 -27 70 -51 122 -89 263 -155 409 -191 47 -12 88 -21 90 -21 6 0
23 92 42 225 3 22 10 65 15 95 5 30 12 73 15 95 3 22 10 64 15 94 6 30 10 55
10 56 0 1 21 -1 48 -6 41 -7 263 -42 347 -55 17 -2 60 -9 98 -16 37 -6 70 -8
74 -5 3 4 7 69 9 145 2 157 -12 254 -56 389 -16 50 -30 94 -30 97 0 6 181 136
190 136 3 0 19 -18 36 -40z m-1759 -505 c48 -82 110 -167 186 -258 l55 -65
-100 -72 c-97 -69 -103 -72 -142 -65 -97 18 -208 14 -296 -9 -20 -5 -41 5
-105 51 -116 84 -122 90 -104 106 29 23 126 142 169 206 76 113 118 194 184
356 l17 39 47 -109 c26 -61 66 -142 89 -180z"/>
<path d="M3406 6451 c-108 -35 -184 -154 -173 -271 24 -273 391 -337 506 -87
95 209 -111 431 -333 358z"/>
<path d="M842 4572 c-255 -91 -224 -462 43 -509 85 -16 184 17 242 79 39 41
66 118 67 184 0 181 -180 307 -352 246z"/>
<path d="M6015 4600 c-113 -29 -190 -117 -202 -232 -25 -245 270 -387 447
-215 82 80 103 223 47 319 -61 105 -181 157 -292 128z"/>
<path d="M1858 1560 c-107 -27 -185 -118 -195 -229 -21 -231 229 -378 415
-245 162 117 143 362 -35 453 -49 25 -132 34 -185 21z"/>
<path d="M5016 1566 c-231 -84 -233 -413 -3 -501 59 -22 155 -16 214 13 157
81 189 310 60 431 -67 62 -187 87 -271 57z"/>
</g>
</svg>
