<svg xmlns="http://www.w3.org/2000/svg" viewBox="0 0 121.55 121.55"><defs><style>.cls-1{fill:#F8A622;}.cls-2{fill:#F8A622;}.cls-3{fill:#F8A622;}</style></defs><g id="圖層_3" data-name="圖層 3"><path class="cls-1" d="M60.78,100.93,22.71,73.27,37.25,28.52H84.3L98.84,73.27ZM26.09,72.18l34.69,25.2,34.68-25.2L82.21,31.4H39.34Z"/><path class="cls-1" d="M60.78,121.55a60.78,60.78,0,1,1,60.77-60.77A60.84,60.84,0,0,1,60.78,121.55Zm0-117.18a56.41,56.41,0,1,0,56.4,56.41A56.47,56.47,0,0,0,60.78,4.37Z"/><path class="cls-2" d="M60.38,118.39l-.18-.12,1,.06v.06Z"/><path class="cls-1" d="M72.9,44.67l.77-.52a28.14,28.14,0,0,1,8.93-3.94,27.46,27.46,0,0,1,4.76-.77,23.79,23.79,0,0,1,5,.16A18.11,18.11,0,0,1,98,41.3l.55.29c-1.51,3-3,5.89-4.49,8.84l8.83,4.49a15.67,15.67,0,0,1-1.7,2.85,21.68,21.68,0,0,1-6,5.45A28.43,28.43,0,0,1,85.27,67a27.26,27.26,0,0,1-4.59.46l-.3,0,0,0,.32.25a28.14,28.14,0,0,1,9.5,12.9,21.91,21.91,0,0,1,1.17,4.79,17.38,17.38,0,0,1-.11,5.29s0,.09-.06.17l-9.77-1.54c-.52,3.25-1,6.5-1.55,9.79l-.71-.1a18.68,18.68,0,0,1-7.06-2.85,26.24,26.24,0,0,1-6.56-6A27.47,27.47,0,0,1,61,81.84a1.17,1.17,0,0,0,0-.11l0-.06-.18.51a28.12,28.12,0,0,1-5,8.77,26.24,26.24,0,0,1-6.13,5.43A19.12,19.12,0,0,1,43.45,99c-.48.1-1,.17-1.48.26l-1.56-9.8L30.64,91c0-.09-.05-.17-.07-.26a16.78,16.78,0,0,1-.14-4.8,23.8,23.8,0,0,1,2.31-7.87,29,29,0,0,1,5-7.22,26.8,26.8,0,0,1,3.56-3.16l.18-.14-.21,0a27.83,27.83,0,0,1-11.86-2.75,24.39,24.39,0,0,1-6.47-4.34A17.8,17.8,0,0,1,19,55.22L18.9,55l8.82-4.51-4.5-8.82.27-.16a17,17,0,0,1,4.62-1.63,22.65,22.65,0,0,1,5.69-.42A28.51,28.51,0,0,1,47.8,44c.35.22.69.46,1.07.72-.1-.33-.19-.62-.27-.92a26.77,26.77,0,0,1-.89-4.52,28.76,28.76,0,0,1-.09-5.33,25.25,25.25,0,0,1,2.57-9.63,17.41,17.41,0,0,1,3.38-4.7l.15-.14.13-.1c2.34,2.31,4.65,4.65,7,7l7-7c.24.24.49.47.72.72a18.51,18.51,0,0,1,3.62,5.72A25.82,25.82,0,0,1,73.9,32a29.14,29.14,0,0,1,.27,5.11A27.44,27.44,0,0,1,73,44.37c0,.09,0,.17-.07.26S72.89,44.65,72.9,44.67ZM40,55.59l15.33,5a9.9,9.9,0,0,1-2.46,3.26A10,10,0,0,1,56.72,65L47.26,78l1.83,1.32,9.46-13a10,10,0,0,1,2.34,3.34,10,10,0,0,1,2.32-3.34c3.16,4.36,6.31,8.68,9.46,13L74.49,78,65,65a10,10,0,0,1,3.87-1.17,9.9,9.9,0,0,1-2.46-3.26l15.33-5-.7-2.14-15.33,5a10,10,0,0,1,.08-4c-.62.27-1.22.56-1.84.8a6.56,6.56,0,0,1-2,.45V39.62H59.75V52.5c0,1.06,0,2.13,0,3.21a7.23,7.23,0,0,1-2-.46c-.61-.23-1.21-.52-1.8-.78.07.65.17,1.3.2,2a7.19,7.19,0,0,1-.17,2l-15.31-5Z"/><path class="cls-1" d="M106.14,82.63a21,21,0,0,1-6.58-1,14.14,14.14,0,0,1-3.92-1.82,7.24,7.24,0,0,1-2.49-2.75,6.12,6.12,0,0,1-.63-3.25A9.91,9.91,0,0,1,94.15,69a6.17,6.17,0,0,1,4.32-2.75,9.92,9.92,0,0,1,3.8.16,20.63,20.63,0,0,1,9.7,5.16,16.15,16.15,0,0,1,2.46,2.89A7.63,7.63,0,0,1,115.54,77a3.16,3.16,0,0,1-1.09,3.21,8,8,0,0,1-2.74,1.49,17,17,0,0,1-3.93.8Z"/><path class="cls-1" d="M16,82.46a18.82,18.82,0,0,1-5.82-.85,8.83,8.83,0,0,1-2.47-1.2,4.79,4.79,0,0,1-1-1,3,3,0,0,1-.55-2.24,6.88,6.88,0,0,1,1.06-2.72,15.27,15.27,0,0,1,2.72-3.18,20.53,20.53,0,0,1,10.23-5.11,9,9,0,0,1,3.83.12A6.32,6.32,0,0,1,28,69.63a10.58,10.58,0,0,1,1.12,3.59,6.28,6.28,0,0,1-1.67,5.27,9.93,9.93,0,0,1-3.31,2.27,21,21,0,0,1-4.64,1.39A18.28,18.28,0,0,1,16,82.46Z"/><path class="cls-1" d="M96.41,19.23a20.12,20.12,0,0,1-2.82,9.69,18.72,18.72,0,0,1-2.9,3.84,9.51,9.51,0,0,1-2.56,1.85,6.31,6.31,0,0,1-5.48.07,10.13,10.13,0,0,1-3.54-2.61,6.34,6.34,0,0,1-1.42-5.88,11.42,11.42,0,0,1,1.8-3.89,20.58,20.58,0,0,1,7.58-6.83A14.48,14.48,0,0,1,90.89,14a6.37,6.37,0,0,1,2.68,0,3,3,0,0,1,2.1,1.63,6.38,6.38,0,0,1,.65,2.26C96.37,18.33,96.38,18.79,96.41,19.23Z"/><path class="cls-1" d="M61.17,118.33l-1-.06A4.83,4.83,0,0,1,58,117a10.88,10.88,0,0,1-1.93-2.4A20.21,20.21,0,0,1,53.32,107a21.75,21.75,0,0,1-.18-4.27A11.29,11.29,0,0,1,54,98.85a6.44,6.44,0,0,1,3-3.34,6.9,6.9,0,0,1,2.54-.75,11.73,11.73,0,0,1,2.9,0,6.44,6.44,0,0,1,5.31,4.13,10.36,10.36,0,0,1,.72,3,20.62,20.62,0,0,1-2.11,11.21,14,14,0,0,1-2.15,3.24,6,6,0,0,1-2.1,1.6C61.78,118.16,61.47,118.23,61.17,118.33Z"/><path class="cls-1" d="M25.51,19.18a8.85,8.85,0,0,1,.38-2.8,6.45,6.45,0,0,1,.46-1,2.92,2.92,0,0,1,2.27-1.53,7.3,7.3,0,0,1,3.08.27,17.22,17.22,0,0,1,4.69,2.21,18.18,18.18,0,0,1,3.12,2.48,19.22,19.22,0,0,1,4,5.54,8.57,8.57,0,0,1,.8,3.14,6,6,0,0,1-1.21,4.05,9.6,9.6,0,0,1-4.43,3.29,6.25,6.25,0,0,1-5.56-.56,11,11,0,0,1-3-2.68,20.75,20.75,0,0,1-4.31-9.18A17,17,0,0,1,25.51,19.18Z"/><path class="cls-3" d="M93.26,98.74a4.63,4.63,0,1,1-4.53-4.64A4.61,4.61,0,0,1,93.26,98.74Z"/><path class="cls-3" d="M33.41,94.32a4.63,4.63,0,1,1-4.62,4.56A4.58,4.58,0,0,1,33.41,94.32Z"/><path class="cls-3" d="M16.17,41.86a4.63,4.63,0,1,1-4.64,4.5A4.63,4.63,0,0,1,16.17,41.86Z"/><path class="cls-3" d="M100.87,46.14a4.63,4.63,0,1,1,4.61,4.64A4.61,4.61,0,0,1,100.87,46.14Z"/><path class="cls-3" d="M65.34,13.87A4.64,4.64,0,1,1,60.7,9.24,4.64,4.64,0,0,1,65.34,13.87Z"/></g></svg>