<svg xmlns="http://www.w3.org/2000/svg" xmlns:xlink="http://www.w3.org/1999/xlink" viewBox="0 0 641.32 185.63" xmlns:v="https://vecta.io/nano"><defs><linearGradient id="A" x1="177.63" y1="73.31" x2="177.63" y2="53.87" gradientUnits="userSpaceOnUse"><stop offset="0" stop-color="#f48e2c"/><stop offset=".38" stop-color="#f69e30"/><stop offset="1" stop-color="#fbc039"/></linearGradient><linearGradient id="B" x1="360.65" y1="47.35" x2="360.65" y2="24.6" xlink:href="#A"/><linearGradient id="C" x1="577.33" y1="92.25" x2="577.33" y2="69.5" xlink:href="#A"/><linearGradient id="D" x1="437.3" y1="39.13" x2="437.3" y2="3.86" xlink:href="#A"/><linearGradient id="E" x1="484.16" y1="135.57" x2="484.16" y2="73.26" xlink:href="#A"/><path id="F" d="M427.27 3.86v35.27s3.7-8.3 8.39-6.8v-14l11.67-6.75s-11.46 3.2-20.06-7.72z"/></defs><g fill="#f6fffc"><path d="M58.4 0l12.72 12.5-10.5-.89S31.8 38.52 12.27 38.52c0 0 33.62-15.07 46.13-38.52zm296.89 2.68l10.21 13.43-9.12-1.68s-24.16 15-41.26 13.48c0 0 27.47-2.8 40.17-25.23zm-199.44-.45l12.73 12.5-10.5-.89s-12.1 20.42-27 20.42c.01 0 10.06-8.08 24.77-32.03zM419 62.12v74c1.14-3.93 5.15-8.69 8.83-6.8V81.5l11.67-9A26.6 26.6 0 0 1 419 62.12z"/><path d="M149.61 19.8v117.69s3.7-8.3 8.38-6.8V34.31l11.68-6.76s-11.46 3.18-20.06-7.75z"/><path d="M126.36 48.8h49.63v1.68h-49.63z"/><path d="M159.66 50.48a47.68 47.68 0 0 0 13.93-16.11.25.25 0 0 1 .35-.11.25.25 0 0 1 .14.26 51.31 51.31 0 0 0-.08 8.13s4.74 1.5 2 7.83zm-4.96 16.75c5.15 6.32 9.57 7.39 14.55 9.48 5.7 2.38 6.27 12.28 2.11 13.6-5.26 1.68-11.76-14.91-18-21.38a6.5 6.5 0 0 1 1.34-1.7zm-9.1-16.75c-2.7 31.28-15.57 68-23.25 75.41l1.43.76S144 107 153.31 50.48c0 0-6.65-.87-7.71 0zm422.49-17.09c-2.79 31.74-24.32 52.35-37.86 58.93l2.62.75s40-14.13 48-59.68zM291.75 1.43l12.72 12.5L294 13s-12.1 20.42-27 20.42c0 .04 10-8.04 24.75-31.99zm-29.5 47.32h49.63v1.68h-49.63z"/><path d="M295.55 49.24a47.68 47.68 0 0 0 13.93-16.11.26.26 0 0 1 .37-.09.28.28 0 0 1 .13.24 50 50 0 0 0-.09 8.12s4.74 1.51 2 7.84zm-5.03 17.01c5.16 6.32 12.54 6.64 16.79 10 4.06 3.18 7.81 13.13-1.75 13.08-5.07 0-10.13-14.89-16.36-21.36a6.91 6.91 0 0 1 1.32-1.72zm-9.03-17.01c-2.7 31.28-15.57 68-23.25 75.41l1.44.75s20.25-19.62 29.52-76.16c0 0-6.65-.87-7.71 0zm53.69-27.87c2 7.81 3.6 13.92 6.91 17.76 3.78 4.38.05 15.6-4 12.94-5.18-3.38-1.72-21.28-4.53-29.64a5.82 5.82 0 0 1 1.62-1.06zM496.55 17a50 50 0 0 1 .09-8.12.28.28 0 0 0-.26-.28.28.28 0 0 0-.24.13c-3.82 7.15-12.34 11.94-17.57 14.33h-61.49C409 23.09 398 20 398 20s6.46 7 5.72 10.21c0 0 5.42-5.31 11.6-5.31h83.23c2.75-6.36-2-7.9-2-7.9zm142.38 97.57a61.28 61.28 0 0 1 .07-8.13c0-.29-.3-.4-.41-.15-3.21 7.15-10.34 11.94-14.72 14.33h-32.45c-6.78 0-16-3.12-16-3.12s5.41 7 4.78 10.21c0 0 4.54-5.31 9.72-5.31h50.68c2.3-6.33-1.67-7.83-1.67-7.83zM633.23 40a63 63 0 0 1 .08-8.13c0-.28-.3-.4-.42-.14-3.2 7.15-10 11.93-14.34 14.33h-17.27c-6.77 0-16-3.12-16-3.12s5.41 7 4.78 10.21c0 0 4.54-5.31 9.71-5.31h35.13c2.3-6.3-1.67-7.84-1.67-7.84zm-131.41-2.11a51.31 51.31 0 0 1 .08-8.13.26.26 0 0 0-.49-.14c-3.83 7.14-12.35 11.93-17.58 14.32h-26.3c-8.09 0-19.07-3.11-19.07-3.11s6.46 7 5.71 10.2c0 0 5.43-5.3 11.61-5.3h48c2.78-6.34-1.96-7.84-1.96-7.84zM584 26.14a55.15 55.15 0 0 1 .09-8.13.25.25 0 0 0-.23-.27.24.24 0 0 0-.24.13c-3.62 7.15-7 11.93-12 14.32H551a28 28 0 0 1-13-3.11s6.11 7 5.41 10.21A5.45 5.45 0 0 1 549 34h36.84c2.62-6.35-1.84-7.86-1.84-7.86zM217.8 37.58c6 1.82 11.43 2 10.55 7.67C227.07 53.52 203.9 69 203.9 69l-.6-2.1c3.7-5.24 17.53-20.28 15.57-24.9-1.28-3-8.74-6.32-8.74-6.32l.18-1.89a57.79 57.79 0 0 0 7.49 3.79zm97.32-9.67c1.38 5.09 2.33 15.38-1.53 27.09 6.16-7.82 9.57-13.14 8.64-28.19zm-1.62 27.71v79.29s3-6.8 8.05-4.53V63.15c-2.81-.55-8.05-7.53-8.05-7.53zm14.5 0v79.29s3-6.8 8-4.53V63.15c-2.78-.55-8-7.53-8-7.53zm38.5.78v78.51s-3-6.8-8-4.53V63.93c2.77-.56 8-7.53 8-7.53z"/><path d="M361.68 126.52l-27.32-.45v-1.33l27.32.44v1.34zm0-61.57l-27.32-.45v-1.34l27.32.45v1.34zm0 31.09l-27.32-.44v-1.34l27.32.45v1.33zm82.75-39.9V102s3-6.8 8-4.53v-33.8c-2.77-.55-8-7.53-8-7.53zm30.42 0V102s-3-6.8-8-4.53v-33.8c2.77-.55 8-7.53 8-7.53z"/><path d="M447.78 92.3h24.77v1.34h-24.77zm0-28.39h24.77v1.34h-24.77zM420.83 36c4.06 4.66 18.7 11 18.7 11l-10 3.32s-14 31.37-30.75 49.81l-1.13-2C410 77.93 417.34 49.32 420.83 36zM140 48.8h-.32c-7.36 0-17.35-2.83-17.35-2.83s5.88 6.35 5.2 9.29c0 0 4.93-4.83 10.56-4.83H140zm135.81 0h-.31c-7.36 0-17.36-2.83-17.36-2.83s5.88 6.35 5.2 9.29c0 0 4.94-4.83 10.56-4.83h1.91zm283.83-16.07a3.46 3.46 0 0 1 2.29 0v-14L573 12s-10.83 3.18-19-7.75v28.48zm-5.85 42.69v60.42c1.08-3.93 4.87-8.69 8.35-6.8V68.19z"/></g><path d="M48.45,22V139.71c1.14-3.92,6.49-8.68,10.17-6.79V41.44l11.67-9S57.05,33,48.45,22Z" fill="#fff"/><path d="M98.55 52.67a50.15 50.15 0 0 1 .09-8.13.27.27 0 0 0-.27-.27.28.28 0 0 0-.23.13c-3.82 7.15-12.34 11.93-17.57 14.32H19.08C11 58.72 0 55.61 0 55.61s6.46 7 5.72 10.21c0 0 5.42-5.31 11.6-5.31h83.22c2.75-6.33-1.99-7.84-1.99-7.84zm505.63-45.6v122.14s5.77-8.29 9.7-6.79V21.58l9.77-6.76S611.38 18 604.18 7.07zm-402.72 28.8c.23-3.56-.05-17.9.06-18.46l10.07-6.76s-11 3.18-18.46-7.75V13c0 84-13.56 102.09-30.76 119.83l1 2.52c28-22.59 33.85-46.77 36.74-80.73 5.46 49.53 22.24 79.39 22.24 79.39.65-4.53 14.38-8.07 14.38-8.07-22.9-6.36-33.35-70.78-35.27-90.07zm282.48 8.64s1.1 43.62 0 61.84c-.94 15.73-17.74 34.31-17.74 34.31s28.61-15.43 28.61-37.39V44.51zM285.5 19v117.69s3.7-8.3 8.39-6.8V33.51l11.67-6.76S294.1 29.93 285.5 19z" fill="#f76159"/><path d="M177.63 57.19l6.31-3.32-1.2 7.03 5.11 4.98-7.07 1.03-3.15 6.4-3.16-6.4-7.07-1.03 5.11-4.98-1.2-7.03 6.32 3.32z" fill="url(#A)"/><path d="M360.57 24.6c-1.69 3.65-7 9.51-11 11.53 3.62 1.62 10.26 7.83 11.74 11.22 1.16-3.25 6.87-9.6 10.41-11.22-3.78-1.13-9.27-7.73-11.15-11.53z" fill="url(#B)"/><path d="M577.26 69.5c-1.7 3.65-7 9.5-11 11.52 3.61 1.62 10.25 7.83 11.73 11.23 1.16-3.25 6.87-9.61 10.42-11.23-3.78-1.16-9.28-7.73-11.15-11.52z" fill="url(#C)"/><use xlink:href="#F" fill="url(#D)"/><use xlink:href="#F" x="36" fill="url(#D)"/><path d="M140.21 173.69a2.19 2.19 0 0 0-.66-1.64A1.39 1.39 0 0 0 138 172a4.32 4.32 0 0 0-1.62 1.44 7.27 7.27 0 0 0-1.13 2.24V184a1 1 0 0 0 .31.78 1.1 1.1 0 0 0 .79.32h.65v.29h-6.4V185h.66a1.1 1.1 0 0 0 .79-.32 1 1 0 0 0 .31-.78v-16.62a.49.49 0 0 0-.13-.36.77.77 0 0 0-.31-.19 1.4 1.4 0 0 0-.41-.06h-.39v-.32a7.08 7.08 0 0 0 .9-.16 10.11 10.11 0 0 0 1.19-.35 9 9 0 0 0 1.11-.47 1.66 1.66 0 0 0 .68-.55h.32v9a7.74 7.74 0 0 1 1.51-1.81 5.54 5.54 0 0 1 2-1.14 3.72 3.72 0 0 1 1.48-.21 2.93 2.93 0 0 1 2.12 1 3.55 3.55 0 0 1 .81 2.46V184a1.09 1.09 0 0 0 1.08 1.1h.68v.29h-6.41V185h.67a1.09 1.09 0 0 0 1.1-1.08h0zm19.46-.58a.49.49 0 0 0-.13-.36.7.7 0 0 0-.32-.19 1.34 1.34 0 0 0-.4-.06h-.39v-.32a7.08 7.08 0 0 0 .9-.16 10 10 0 0 0 1.18-.35 7.4 7.4 0 0 0 1.12-.48 1.47 1.47 0 0 0 .68-.55h.32v13.26a1.09 1.09 0 0 0 1.08 1.1h.69v.29H158V185h.67a1.09 1.09 0 0 0 1.1-1.08h0zm-.2-4.61a1.67 1.67 0 1 1 .49 1.19 1.61 1.61 0 0 1-.49-1.19zm23.53 6.61a4.54 4.54 0 0 0 .94-1.67 1.17 1.17 0 0 0-.1-1 .85.85 0 0 0-.81-.24 2.71 2.71 0 0 0-1.22.55 5.71 5.71 0 0 0-1.33 1.4 8.53 8.53 0 0 0-1.14 2.35 3 3 0 0 1-1.49-1.75 2.35 2.35 0 0 1 .36-1.84 4.53 4.53 0 0 1 1.83-1.47 7.2 7.2 0 0 1 2.93-.62 7.83 7.83 0 0 1 1.45.07 5.6 5.6 0 0 1 1.22.31 6.19 6.19 0 0 1 1.07.59 3.78 3.78 0 0 1 .93.94 5.57 5.57 0 0 1 .67 1.39 6.74 6.74 0 0 1 .26 1.95V184a1.09 1.09 0 0 0 1.07 1.11h.69v.29h-2.73a1.9 1.9 0 0 1-1.88-1.66v-2.49a7.52 7.52 0 0 1-1.32 2.38 6 6 0 0 1-2 1.59 4.06 4.06 0 0 1-1.71.41 4.15 4.15 0 0 1-1.26-.2 3.08 3.08 0 0 1-1.05-.61 2.92 2.92 0 0 1-.71-1 3.91 3.91 0 0 1-.26-1.48A4.11 4.11 0 0 1 178 180a8.79 8.79 0 0 1 1.51-1.77l1.86-1.57a10.07 10.07 0 0 0 1.73-1.66zm-.73-3.31h.8a2.18 2.18 0 0 1 .75.19 1.31 1.31 0 0 1 .54.45 1.2 1.2 0 0 1 .15.81 3.37 3.37 0 0 1-.41 1.19 12.33 12.33 0 0 1-.77 1.25 12.64 12.64 0 0 1-.84 1.09l-.62.74a6.55 6.55 0 0 0-1.44 2.42 3 3 0 0 0 0 1.77 1.76 1.76 0 0 0 1 1 2.35 2.35 0 0 0 1.48.09 2.72 2.72 0 0 0 1-.48 3.38 3.38 0 0 0 .88-1 5.76 5.76 0 0 0 .63-1.49 8.4 8.4 0 0 0 .23-2.06v-3.71a2.8 2.8 0 0 0-.28-1.27 2.28 2.28 0 0 0-.72-.85 2.1 2.1 0 0 0-1.06-.36 3.21 3.21 0 0 0-1.3.22zm22.73-4.52a.49.49 0 0 0-.13-.36.8.8 0 0 0-.32-.19 1.34 1.34 0 0 0-.4-.06h-.4v-.32a7.08 7.08 0 0 0 .9-.16 8.13 8.13 0 0 0 1.19-.35 9.14 9.14 0 0 0 1.12-.47 1.73 1.73 0 0 0 .68-.55h.36V179a14.49 14.49 0 0 0 1.58-.89A9.65 9.65 0 0 0 211 177a7.52 7.52 0 0 0 1.09-1.3 3.06 3.06 0 0 0 .49-1.4 2.48 2.48 0 0 0-.35-1.43 4.38 4.38 0 0 0-1.42-1.42 2.73 2.73 0 0 1 1.45-.83 3.75 3.75 0 0 1 1.7 0 3.34 3.34 0 0 1 1.42.74 1.89 1.89 0 0 1 .62 1.38 3.7 3.7 0 0 1-.85 2.15 12.6 12.6 0 0 1-3.09 2.78l3.3 5.74a2.86 2.86 0 0 0 1.08 1.13 2.74 2.74 0 0 0 1.5.41v.29h-7V185h.4a.9.9 0 0 0 .81-.46.86.86 0 0 0 0-.9l-2.64-4.53-.75.42-.72.4v4a1 1 0 0 0 .31.78 1.1 1.1 0 0 0 .79.32h.66v.29h-6.4V185h.66a1.1 1.1 0 0 0 .79-.32 1 1 0 0 0 .31-.78v-16.62zm27.69 5.83a.49.49 0 0 0-.13-.36.77.77 0 0 0-.31-.19 1.4 1.4 0 0 0-.41-.06h-.39v-.32a7.08 7.08 0 0 0 .9-.16 10.11 10.11 0 0 0 1.19-.35 7.75 7.75 0 0 0 1.11-.48 1.47 1.47 0 0 0 .68-.55h.32v13.26a1 1 0 0 0 .32.78 1.1 1.1 0 0 0 .78.32h.67v.29H231V185h.67a1 1 0 0 0 1.1-1.1zm-.2-4.61a1.65 1.65 0 0 1 .49-1.19 1.68 1.68 0 1 1 0 2.38 1.65 1.65 0 0 1-.49-1.19zM276 184.74a1 1 0 0 0 .78.32h.67v.29H271v-.29h.67a1 1 0 0 0 .78-.32 1.1 1.1 0 0 0 .32-.78V166.5a1 1 0 0 0-1.1-1.1H271v-.29h6.41v.29h-.67a1 1 0 0 0-1.1 1.1V184a1.09 1.09 0 0 0 .36.74zm24-11.05a2.2 2.2 0 0 0-.67-1.64 1.39 1.39 0 0 0-1.54-.1 4.32 4.32 0 0 0-1.62 1.44 7.27 7.27 0 0 0-1.13 2.24v8.3a1 1 0 0 0 1.1 1.1h.66v.29h-6.4V185h.6a1.1 1.1 0 0 0 .79-.32 1 1 0 0 0 .32-.78v-10.79a.45.45 0 0 0-.14-.36.77.77 0 0 0-.31-.19 1.4 1.4 0 0 0-.41-.06h-.39v-.32a7.08 7.08 0 0 0 .9-.16 10.11 10.11 0 0 0 1.19-.35 7.75 7.75 0 0 0 1.11-.48 1.47 1.47 0 0 0 .68-.55h.32v3.16a7.74 7.74 0 0 1 1.51-1.81 5.54 5.54 0 0 1 2-1.14 3.72 3.72 0 0 1 1.48-.21 2.93 2.93 0 0 1 2.12 1 3.55 3.55 0 0 1 .81 2.46v9.83a1.09 1.09 0 0 0 1.08 1.1h.69v.29h-6.41V185h.66a1.09 1.09 0 0 0 1.1-1.08h0zm23.35 1.42a4.54 4.54 0 0 0 .94-1.67 1.17 1.17 0 0 0-.1-1 .85.85 0 0 0-.81-.24 2.71 2.71 0 0 0-1.22.55 6.14 6.14 0 0 0-1.34 1.4 8.94 8.94 0 0 0-1.13 2.35 3 3 0 0 1-1.49-1.75 2.35 2.35 0 0 1 .36-1.84 4.53 4.53 0 0 1 1.83-1.47 7.2 7.2 0 0 1 2.93-.62 7.83 7.83 0 0 1 1.45.07 5.6 5.6 0 0 1 1.22.31 6.19 6.19 0 0 1 1.07.59 3.78 3.78 0 0 1 .93.94 5.21 5.21 0 0 1 .66 1.39 6.43 6.43 0 0 1 .27 1.95V184a1.08 1.08 0 0 0 1.05 1.11h.71v.29h-2.75a1.92 1.92 0 0 1-1.89-1.66v-2.49a7.49 7.49 0 0 1-1.31 2.38 6 6 0 0 1-2 1.59 4.06 4.06 0 0 1-1.71.41 4.15 4.15 0 0 1-1.26-.2 3 3 0 0 1-1-.61 2.92 2.92 0 0 1-.71-1 3.91 3.91 0 0 1-.26-1.48 4.13 4.13 0 0 1 .62-2.27 8.79 8.79 0 0 1 1.51-1.77l1.86-1.57a9.65 9.65 0 0 0 1.69-1.69zm-.73-3.31h.8a2.18 2.18 0 0 1 .75.19 1.31 1.31 0 0 1 .54.45 1.2 1.2 0 0 1 .15.81 3.37 3.37 0 0 1-.41 1.19 12.33 12.33 0 0 1-.77 1.25 12.64 12.64 0 0 1-.84 1.09l-.62.74a6.42 6.42 0 0 0-1.44 2.42 3 3 0 0 0 0 1.77 1.7 1.7 0 0 0 1 1 2.35 2.35 0 0 0 1.48.09 2.72 2.72 0 0 0 1-.48 3.38 3.38 0 0 0 .88-1 5.28 5.28 0 0 0 .62-1.49 8 8 0 0 0 .24-2.06v-3.71a2.8 2.8 0 0 0-.28-1.27 2.19 2.19 0 0 0-.72-.79 2.1 2.1 0 0 0-1.06-.36 3.1 3.1 0 0 0-1.32.16zm25.7.41a1.11 1.11 0 0 1 .07.26v.26a10.85 10.85 0 0 1 1.24-1 6.36 6.36 0 0 1 1.42-.73 4.91 4.91 0 0 1 1.52-.27 3.32 3.32 0 0 1 1.54.36 3.91 3.91 0 0 1 .6.4 3 3 0 0 1 1 1.34 3 3 0 0 1 .09.72 2.49 2.49 0 0 1-2.47 2.47h-.43a4.82 4.82 0 0 0 0-1.2 5.09 5.09 0 0 0-.25-1.22 2.7 2.7 0 0 0-.54-1 1.43 1.43 0 0 0-.87-.5 1.91 1.91 0 0 0-.95.09 2.59 2.59 0 0 0-.93.59 3.12 3.12 0 0 0-.7 1.12 4.1 4.1 0 0 0-.22.78 7.28 7.28 0 0 0-.07.93V184a.9.9 0 0 0 .09.4 1.27 1.27 0 0 0 .41.51 1 1 0 0 0 .6.19l.64.29h-6.44v-.29h.67a1 1 0 0 0 1.1-1.1v-11.63a1.09 1.09 0 0 0-1.07-1.11h-.7V171h2.75a1.86 1.86 0 0 1 1.07.34 2 2 0 0 1 .71.88zm22.24.9a.49.49 0 0 0-.13-.36.8.8 0 0 0-.32-.19 1.4 1.4 0 0 0-.41-.06h-.39v-.32a7.08 7.08 0 0 0 .9-.16 10.11 10.11 0 0 0 1.19-.35 7.4 7.4 0 0 0 1.12-.48 1.66 1.66 0 0 0 .68-.55h.32v13.26a1 1 0 0 0 1.1 1.1h.67v.29h-6.41V185h.66a1.1 1.1 0 0 0 .79-.32 1 1 0 0 0 .32-.78zm-.2-4.61a1.67 1.67 0 1 1 .49 1.19 1.61 1.61 0 0 1-.49-1.19zm44.89-2.32a4 4 0 0 0-1.51-.07 2.88 2.88 0 0 0-1.33.47 1.67 1.67 0 0 0-.7 1 2.07 2.07 0 0 0 .41 1.52 8 8 0 0 0 1.16 1.43l1.66 1.57 1.9 1.61 1.89 1.54 1.54 1.32a6.53 6.53 0 0 1 1.27 1.55 4.23 4.23 0 0 1 .64 2.07 4.65 4.65 0 0 1-.73 2.51 1.63 1.63 0 0 1-.23.35 5.07 5.07 0 0 1-.69.78 5.24 5.24 0 0 1-1.54 1 7 7 0 0 1-1.48.5 11.88 11.88 0 0 1-1.57.23 9.92 9.92 0 0 1-2.55-.15 7.29 7.29 0 0 1-2.27-.74 4.24 4.24 0 0 1-1.61-1.36 3.22 3.22 0 0 1-.57-1.93 5.06 5.06 0 0 1 .86-2.49 8.28 8.28 0 0 0 2.13 3.12 9.46 9.46 0 0 0 2.78 1.77 7.06 7.06 0 0 0 2.76.53 3.39 3.39 0 0 0 2-.58 1.7 1.7 0 0 0 .61-1.59 4.69 4.69 0 0 0-1.5-2.5 34.17 34.17 0 0 0-3.25-3q-1.71-1.35-3.36-2.81a14.63 14.63 0 0 1-1.25-1.24 5 5 0 0 1-.84-1.37 4.12 4.12 0 0 1-.22-1.52 4.84 4.84 0 0 1 1.4-3.16 5.47 5.47 0 0 1 1.55-1.1 6.56 6.56 0 0 1 1.84-.57 11.13 11.13 0 0 1 2-.11 5.11 5.11 0 0 1 1.5.29 5.17 5.17 0 0 1 1.45.72 5.6 5.6 0 0 1 1.2 1.23 3.73 3.73 0 0 1 .71 1.35 2.54 2.54 0 0 1-1.65 3.07 7.44 7.44 0 0 0-.53-1.78 7.15 7.15 0 0 0-.94-1.6 6.43 6.43 0 0 0-1.32-1.23 5.06 5.06 0 0 0-1.65-.76zm29.38 7.51a2.2 2.2 0 0 0-.67-1.64 1.39 1.39 0 0 0-1.54-.1 4.32 4.32 0 0 0-1.62 1.44 7.27 7.27 0 0 0-1.13 2.24v8.3a1 1 0 0 0 .31.78 1.1 1.1 0 0 0 .79.32h.66v.29H435V185h.66a1.1 1.1 0 0 0 .79-.32 1 1 0 0 0 .31-.78v-16.62a.49.49 0 0 0-.13-.36.77.77 0 0 0-.31-.19 1.4 1.4 0 0 0-.41-.06h-.39v-.32a7.08 7.08 0 0 0 .9-.16 10.11 10.11 0 0 0 1.19-.35 9 9 0 0 0 1.11-.47 1.66 1.66 0 0 0 .68-.55h.32v9a7.74 7.74 0 0 1 1.51-1.81 5.54 5.54 0 0 1 2-1.14 3.72 3.72 0 0 1 1.48-.21 2.93 2.93 0 0 1 2.12 1 3.55 3.55 0 0 1 .81 2.46V184a1.09 1.09 0 0 0 1.08 1.1h.69v.29H443V185h.67a1.09 1.09 0 0 0 1.1-1.08h0zm22.37-1.48a1.12 1.12 0 0 1 .08.26v.26a11.68 11.68 0 0 1 1.23-1 6.36 6.36 0 0 1 1.42-.73 5 5 0 0 1 1.53-.27 3.25 3.25 0 0 1 1.53.36 3.46 3.46 0 0 1 1.61 1.74 2.94 2.94 0 0 1 .08.72A2.44 2.44 0 0 1 472 176h-.44a4.82 4.82 0 0 0 0-1.2 6.42 6.42 0 0 0-.24-1.22 2.94 2.94 0 0 0-.54-1 1.43 1.43 0 0 0-.87-.5 2 2 0 0 0-1 .09 2.55 2.55 0 0 0-.92.59 3.12 3.12 0 0 0-.7 1.12 3.48 3.48 0 0 0-.22.78 5.82 5.82 0 0 0-.07.93V184a.9.9 0 0 0 .09.4 1.25 1.25 0 0 0 .4.51 1 1 0 0 0 .61.19l.64.29h-6.34v-.29h.67a1 1 0 0 0 .78-.32 1.1 1.1 0 0 0 .32-.78v-11.63a1.1 1.1 0 0 0-.32-.79 1 1 0 0 0-.78-.32h-.67V171h2.74a1.89 1.89 0 0 1 1.08.34 2 2 0 0 1 .7.88zm22.23.9a.49.49 0 0 0-.13-.36.8.8 0 0 0-.32-.19 1.4 1.4 0 0 0-.41-.06H488v-.32a7.08 7.08 0 0 0 .9-.16 10.11 10.11 0 0 0 1.19-.35 7.75 7.75 0 0 0 1.11-.48 1.63 1.63 0 0 0 .69-.55h.31v13.26a1 1 0 0 0 .32.78 1.1 1.1 0 0 0 .79.32h.69v.29h-6.41V185h.67a1 1 0 0 0 1.1-1.1zm-.23-4.61a1.62 1.62 0 0 1 .5-1.19 1.68 1.68 0 0 1 2.37 0 1.66 1.66 0 0 1 0 2.36h0a1.68 1.68 0 0 1-2.37 0 1.66 1.66 0 0 1-.5-1.17zm27.46 5.19a2.16 2.16 0 0 0-.67-1.64 1.39 1.39 0 0 0-1.54-.1 4.32 4.32 0 0 0-1.62 1.44 7.62 7.62 0 0 0-1.13 2.24v8.3a1 1 0 0 0 1.1 1.1h.67v.29h-6.41V185h.67a1.1 1.1 0 0 0 .78-.32 1 1 0 0 0 .32-.78v-10.79a.49.49 0 0 0-.13-.36.8.8 0 0 0-.32-.19 1.4 1.4 0 0 0-.41-.06h-.39v-.32a7.08 7.08 0 0 0 .9-.16 10.11 10.11 0 0 0 1.19-.35 7.75 7.75 0 0 0 1.11-.48 1.63 1.63 0 0 0 .69-.55h.32v3.16a7.46 7.46 0 0 1 1.5-1.81 5.4 5.4 0 0 1 2-1.14 3.67 3.67 0 0 1 1.47-.21 2.93 2.93 0 0 1 2.12 1 3.55 3.55 0 0 1 .81 2.46v9.83a1 1 0 0 0 .32.78 1.1 1.1 0 0 0 .79.32h.66v.29h-6.41V185h.67a1 1 0 0 0 1.1-1.1zm23.43-3.13a5.19 5.19 0 0 1 1.7.29 4.58 4.58 0 0 1 1.46.82 4 4 0 0 1 1 1.3 3.8 3.8 0 0 1 .42 1.68 3.1 3.1 0 0 1-.68 2.07 6.94 6.94 0 0 1-2.94 2.13 7.7 7.7 0 0 0-1.12.54 2.48 2.48 0 0 0-.83.78 2.72 2.72 0 0 0 .29 3 .65.65 0 0 0 .15.18 5.16 5.16 0 0 0 .69.63 2.87 2.87 0 0 0 .9.47 1.1 1.1 0 0 0 .67 0 .62.62 0 0 1 .19-.07l.27-.11a2.36 2.36 0 0 0 .79-.4l.4-.22.29-.16.2.35.12.2-1.3.76-.26.14a5.11 5.11 0 0 1-2.47.64 5 5 0 0 1-2.35-.6 6.52 6.52 0 0 1-2-1.61 7.78 7.78 0 0 1-1.36-2.37 8.5 8.5 0 0 1 0-5.8 7.83 7.83 0 0 1 1.36-2.38 6.34 6.34 0 0 1 2-1.6 5.2 5.2 0 0 1 2.35-.58zm-1.48 9.16a4 4 0 0 1 1.09-1.25 11.62 11.62 0 0 0 1.32-1.21 4.1 4.1 0 0 0 .87-1.6 4 4 0 0 0-.26-2.35 2.81 2.81 0 0 0-1.27-1.56 2 2 0 0 0-1.7-.16A2.91 2.91 0 0 0 537 173a6 6 0 0 0-.49 3.14 9.45 9.45 0 0 0 .24 1.68q.18.75.42 1.59l.2.55a10.28 10.28 0 0 0 .62 1.4v-.12a2.93 2.93 0 0 1 .38-1.45zm-419.92-6.93a4.76 4.76 0 0 0-.15-6.2c-2.28-2.3-4.52-2-6.21-.94-2.68 1.67-7.91 11-2.37 17.51 3.67 4.29 8.18 2.16 10.06-.61l-.72-.53c-1.21 1.51-2.88 3.42-6.7.24-2.4-2-4.79-6.77-3.18-10.76 3.3-8.21 9.78-1.38 9.27 1.29z" fill="#fff"/><path d="M494.81 60.58v29l1.52 2.25c5.08 7.47 1.06 17.89-6.65 20.47-9.11 3-23.14 0-29.42.34s-8.57 4.07-8.57 4.07c6.95-3.23 10.57.48 10.57.48-23.23.38-28.18 22.84-28.18 22.84s8.76-6.22 16.76-6.09c11.14.18 19 11.42 38.84 14.09s44.15-8.36 44.55-39.61c.4-31.05-27.98-40.16-39.42-47.84z" fill="url(#E)"/></svg>